<?xml version="1.0" encoding="UTF-8" standalone="no"?>
<!-- Created with Inkscape (http://www.inkscape.org/) -->

<svg
   width="150.00041mm"
   height="150.00041mm"
   viewBox="0 0 150.00041 150.00041"
   version="1.1"
   id="svg1"
   xml:space="preserve"
   xmlns="http://www.w3.org/2000/svg"
   xmlns:svg="http://www.w3.org/2000/svg"><defs
     id="defs1" /><g
     id="layer1"><path
       id="rect3"
       style="fill:#7da4dc;stroke:#000000;stroke-width:10;stroke-linejoin:round;stroke-dasharray:50, 20;stroke-dashoffset:29.9999"
       d="M 5,5 H 145.00041 V 145.00041 H 5 Z" /><g
       style="fill:none;fill-opacity:1;stroke-width:0.857166;stroke-dasharray:none"
       id="g2"
       transform="matrix(5.8333262,0,0,5.8333262,5.0000858,5.0000858)"><path
         id="rect13"
         style="fill:#d19061;fill-opacity:1;stroke:#d19061;stroke-width:32.8126;stroke-linecap:round;stroke-linejoin:round;stroke-miterlimit:5.5;stroke-dasharray:none;stroke-dashoffset:113.386;stroke-opacity:1"
         d="m 38.9063,38.9063 h 72.1874 v 72.18745 H 38.9063 Z"
         transform="matrix(0.17142878,0,0,0.17142878,-0.85715861,-0.85715861)" /><path
         id="rect1"
         style="stroke:#000000;stroke-width:0.857166;stroke-linecap:round;stroke-linejoin:round;stroke-dasharray:none"
         d="m 6,3 h 12 c 1.662,0 3,1.338 3,3 v 12 c 0,1.662 -1.338,3 -3,3 H 6 C 4.338,21 3,19.662 3,18 V 6 C 3,4.338 4.338,3 6,3 Z" /><path
         d="m 9,3.428572 v 6 l 3,-2 3,2 v -6"
         stroke="#000000"
         stroke-width="2"
         stroke-linecap="round"
         stroke-linejoin="round"
         id="path1-4"
         style="fill:#bc3333;fill-opacity:1;stroke-width:0.857166;stroke-dasharray:none" /></g><g
       style="fill:#ac683a;fill-opacity:1;stroke-width:1.56265;stroke-dasharray:none"
       id="g3"
       transform="matrix(3.0715133,0,0,3.071536,38.141764,53.305029)"><path
         d="m 11,2.57735 c 0.6188,-0.35727 1.3812,-0.35727 2,0 l 6.6603,3.8453 c 0.6188,0.35727 1,1.01752 1,1.73205 v 7.6906 c 0,0.7145 -0.3812,1.3748 -1,1.7321 L 13,21.4226 c -0.6188,0.3573 -1.3812,0.3573 -2,0 L 4.33975,17.5774 c -0.61881,-0.3573 -1,-1.0176 -1,-1.7321 V 8.1547 c 0,-0.71453 0.38119,-1.37478 1,-1.73205 z"
         stroke="#000000"
         stroke-width="2"
         stroke-linecap="round"
         stroke-linejoin="round"
         id="path3"
         style="fill:#ac683a;fill-opacity:1;stroke-width:1.56265;stroke-dasharray:none" /><path
         d="M 20.3873,7.1575 11.9999,12 3.60913,7.14978"
         stroke="#000000"
         stroke-width="2"
         stroke-linecap="round"
         stroke-linejoin="round"
         id="path1-5"
         style="fill:#ac683a;fill-opacity:1;stroke-width:1.56265;stroke-dasharray:none" /><path
         d="m 12,12 v 9"
         stroke="#000000"
         stroke-width="2"
         stroke-linecap="round"
         stroke-linejoin="round"
         id="path2"
         style="fill:#ac683a;fill-opacity:1;stroke-width:1.56265;stroke-dasharray:none" /></g></g></svg>
