<?xml version="1.0" encoding="UTF-8" standalone="no"?>
<!-- Created with Inkscape (http://www.inkscape.org/) -->

<svg
   width="150.00041mm"
   height="150.00041mm"
   viewBox="0 0 150.00041 150.00041"
   version="1.1"
   id="svg1"
   xml:space="preserve"
   xmlns:inkscape="http://www.inkscape.org/namespaces/inkscape"
   xmlns:sodipodi="http://sodipodi.sourceforge.net/DTD/sodipodi-0.dtd"
   xmlns="http://www.w3.org/2000/svg"
   xmlns:svg="http://www.w3.org/2000/svg"><sodipodi:namedview
     id="namedview1"
     pagecolor="#ffffff"
     bordercolor="#000000"
     borderopacity="0.25"
     inkscape:showpageshadow="2"
     inkscape:pageopacity="0.0"
     inkscape:pagecheckerboard="0"
     inkscape:deskcolor="#d1d1d1"
     inkscape:document-units="mm"
     showgrid="false"><inkscape:grid
       id="grid4"
       units="mm"
       originx="0"
       originy="0"
       spacingx="0.99999998"
       spacingy="1"
       empcolor="#0099e5"
       empopacity="0.30196078"
       color="#0099e5"
       opacity="0.14901961"
       empspacing="5"
       enabled="true"
       visible="false" /><inkscape:page
       x="0"
       y="0"
       width="150.00041"
       height="150.00041"
       id="page2"
       margin="0"
       bleed="0" /></sodipodi:namedview><defs
     id="defs1" /><g
     inkscape:label="Logo"
     inkscape:groupmode="layer"
     id="layer1"><path
       id="rect3"
       style="fill:#7da4dc;stroke:#000000;stroke-width:10;stroke-linejoin:round;stroke-dasharray:50, 20;stroke-dashoffset:29.9999"
       d="M 5,5 H 145.00041 V 145.00041 H 5 Z"
       inkscape:label="Backdrop"
       inkscape:export-filename="rect3.svg"
       inkscape:export-xdpi="1000"
       inkscape:export-ydpi="1000" /><g
       style="fill:none;fill-opacity:1;stroke-width:0.857166;stroke-dasharray:none"
       id="g2"
       transform="matrix(5.8333262,0,0,5.8333262,5.0000858,5.0000858)"
       inkscape:label="Outer_Box"><path
         id="rect13"
         style="fill:#d19061;fill-opacity:1;stroke:#d19061;stroke-width:32.8126;stroke-linecap:round;stroke-linejoin:round;stroke-miterlimit:5.5;stroke-dasharray:none;stroke-dashoffset:113.386;stroke-opacity:1"
         d="m 38.9063,38.9063 h 72.1874 v 72.18745 H 38.9063 Z"
         inkscape:label="Background"
         transform="matrix(0.17142878,0,0,0.17142878,-0.85715861,-0.85715861)" /><path
         id="rect1"
         style="stroke:#000000;stroke-width:0.857166;stroke-linecap:round;stroke-linejoin:round;stroke-dasharray:none"
         d="m 6,3 h 12 c 1.662,0 3,1.338 3,3 v 12 c 0,1.662 -1.338,3 -3,3 H 6 C 4.338,21 3,19.662 3,18 V 6 C 3,4.338 4.338,3 6,3 Z"
         inkscape:label="Box" /><path
         d="m 9,3.428572 v 6 l 3,-2 3,2 v -6"
         stroke="#000000"
         stroke-width="2"
         stroke-linecap="round"
         stroke-linejoin="round"
         id="path1-4"
         style="fill:#bc3333;fill-opacity:1;stroke-width:0.857166;stroke-dasharray:none"
         inkscape:label="Ribbon" /></g><g
       style="fill:#ac683a;fill-opacity:1;stroke-width:1.56265;stroke-dasharray:none"
       id="g3"
       transform="matrix(3.0715133,0,0,3.071536,38.141764,53.305029)"
       inkscape:label="Inner_Box"><path
         d="m 11,2.57735 c 0.6188,-0.35727 1.3812,-0.35727 2,0 l 6.6603,3.8453 c 0.6188,0.35727 1,1.01752 1,1.73205 v 7.6906 c 0,0.7145 -0.3812,1.3748 -1,1.7321 L 13,21.4226 c -0.6188,0.3573 -1.3812,0.3573 -2,0 L 4.33975,17.5774 c -0.61881,-0.3573 -1,-1.0176 -1,-1.7321 V 8.1547 c 0,-0.71453 0.38119,-1.37478 1,-1.73205 z"
         stroke="#000000"
         stroke-width="2"
         stroke-linecap="round"
         stroke-linejoin="round"
         id="path3"
         style="fill:#ac683a;fill-opacity:1;stroke-width:1.56265;stroke-dasharray:none"
         inkscape:label="Main" /><path
         d="M 20.3873,7.1575 11.9999,12 3.60913,7.14978"
         stroke="#000000"
         stroke-width="2"
         stroke-linecap="round"
         stroke-linejoin="round"
         id="path1-5"
         style="fill:#ac683a;fill-opacity:1;stroke-width:1.56265;stroke-dasharray:none"
         inkscape:label="Y_Form" /><path
         d="m 12,12 v 9"
         stroke="#000000"
         stroke-width="2"
         stroke-linecap="round"
         stroke-linejoin="round"
         id="path2"
         style="fill:#ac683a;fill-opacity:1;stroke-width:1.56265;stroke-dasharray:none"
         inkscape:label="Down_Strike" /></g></g></svg>
